<svg xmlns="http://www.w3.org/2000/svg" version="1.1" xmlns:xlink="http://www.w3.org/1999/xlink" xmlns:svgjs="http://svgjs.dev/svgjs" width="128" height="128" viewBox="0 0 128 128"><g transform="matrix(0.8046875,0,0,0.8046875,12.333870967741937,12.333870967741937)"><svg viewBox="0 0 155 155" data-background-color="#000000" preserveAspectRatio="xMidYMid meet" height="128" width="128" xmlns="http://www.w3.org/2000/svg" xmlns:xlink="http://www.w3.org/1999/xlink"><g id="tight-bounds" transform="matrix(1,0,0,1,0.25,0.25)"><svg viewBox="0 0 154.5 154.5" height="154.5" width="154.5"><g><svg></svg></g><g><svg viewBox="0 0 154.5 154.5" height="154.5" width="154.5"><g transform="matrix(1,0,0,1,62.05650353455721,59.016757278)"><svg viewBox="0 0 30.386992930885587 36.46648544399999" height="36.46648544399999" width="30.386992930885587"><g><svg viewBox="0 0 30.386992930885587 36.46648544399999" height="36.46648544399999" width="30.386992930885587"><g><svg viewBox="0 0 30.386992930885587 36.46648544399999" height="36.46648544399999" width="30.386992930885587"><g id="textblocktransform"><svg viewBox="0 0 30.386992930885587 36.46648544399999" height="36.46648544399999" width="30.386992930885587" id="textblock"><g><svg viewBox="0 0 30.386992930885587 36.46648544399999" height="36.46648544399999" width="30.386992930885587"><g><svg viewBox="0 0 30.386992930885587 36.46648544399999" height="36.46648544399999" width="30.386992930885587"><g><svg xmlns="http://www.w3.org/2000/svg" xmlns:xlink="http://www.w3.org/1999/xlink" version="1.1" x="0" y="0" viewBox="8.63 1.356 81.26700000000001 97.52600000000001" enable-background="new 0 0 100 100" xml:space="preserve" height="36.46648544399999" width="30.386992930885587" class="icon-icon-0" data-fill-palette-color="accent" id="icon-0"></svg></g></svg></g></svg></g></svg></g></svg></g><g></g></svg></g></svg></g><g></g></svg></g><defs></defs><mask id="935d8f87-ae51-46b9-86ae-d5e0b455982f"><g id="SvgjsG2398"><svg viewBox="0 0 154.5 154.5" height="154.5" width="154.5"><g><svg></svg></g><g><svg viewBox="0 0 154.5 154.5" height="154.5" width="154.5"><g transform="matrix(1,0,0,1,62.05650353455721,59.016757278)"><svg viewBox="0 0 30.386992930885587 36.46648544399999" height="36.46648544399999" width="30.386992930885587"><g><svg viewBox="0 0 30.386992930885587 36.46648544399999" height="36.46648544399999" width="30.386992930885587"><g><svg viewBox="0 0 30.386992930885587 36.46648544399999" height="36.46648544399999" width="30.386992930885587"><g id="SvgjsG2397"><svg viewBox="0 0 30.386992930885587 36.46648544399999" height="36.46648544399999" width="30.386992930885587" id="SvgjsSvg2396"><g><svg viewBox="0 0 30.386992930885587 36.46648544399999" height="36.46648544399999" width="30.386992930885587"><g><svg viewBox="0 0 30.386992930885587 36.46648544399999" height="36.46648544399999" width="30.386992930885587"><g><svg xmlns="http://www.w3.org/2000/svg" xmlns:xlink="http://www.w3.org/1999/xlink" version="1.1" x="0" y="0" viewBox="8.63 1.356 81.26700000000001 97.52600000000001" enable-background="new 0 0 100 100" xml:space="preserve" height="36.46648544399999" width="30.386992930885587" class="icon-icon-0" data-fill-palette-color="accent" id="SvgjsSvg2395"><g fill="white"><path d="M81.774 9.483L77.71 1.356H49.265l0 0H20.819l-4.064 8.127L8.63 13.547v8.127h40.622l0 0h40.645v-8.127L81.774 9.483zM55.36 13.547H43.169c-1.132 0-2.033-0.911-2.033-2.031 0-1.127 0.901-2.033 2.033-2.033H55.36c1.119 0 2.032 0.906 2.032 2.033C57.393 12.636 56.479 13.547 55.36 13.547z" fill="white"></path></g><path d="M80.273 39.176l1.501-13.438H16.743l1.387 12.443h-0.049l2.524 21.626 1.558 14.693 2.708 24.382h48.773l0 0 2.576-24.382 4.089-35.325H80.273zM70.783 71.633H27.758l-3.245-26.716h49.36L70.783 71.633z" fill="white"></path></svg></g></svg></g></svg></g></svg></g></svg></g><g></g></svg></g></svg></g><g></g></svg></g><defs><mask></mask></defs></svg><rect width="154.5" height="154.5" fill="black" stroke="none" visibility="hidden"></rect></g></mask><linearGradient x1="0" x2="1" y1="0.578" y2="0.595" id="35fe2b20-69e5-4e29-b359-5c7afa57d567"><stop stop-color="#dede50" offset="0"></stop><stop stop-color="#559c49" offset="1"></stop></linearGradient><rect width="154.5" height="154.5" fill="url(#35fe2b20-69e5-4e29-b359-5c7afa57d567)" mask="url(#935d8f87-ae51-46b9-86ae-d5e0b455982f)" data-fill-palette-color="accent"></rect></svg><rect width="154.5" height="154.5" fill="none" stroke="none" visibility="hidden"></rect></g></svg></g></svg>