<svg xmlns="http://www.w3.org/2000/svg" version="1.1" xmlns:xlink="http://www.w3.org/1999/xlink" xmlns:svgjs="http://svgjs.dev/svgjs" width="2000" height="1500" viewBox="0 0 2000 1500"><rect width="2000" height="1500" fill="#000000"></rect><g transform="matrix(0.75,0,0,0.75,249.090909090909,282.7536437246963)"><svg viewBox="0 0 396 247" data-background-color="#000000" preserveAspectRatio="xMidYMid meet" height="1247" width="2000" xmlns="http://www.w3.org/2000/svg" xmlns:xlink="http://www.w3.org/1999/xlink"><g id="tight-bounds" transform="matrix(1,0,0,1,0.2400000000000091,-0.09999999999999432)"><svg viewBox="0 0 395.52 247.2" height="247.2" width="395.52"><rect width="395.52" height="247.2" fill="url(#f48dc574-79c4-4539-ab90-bb5f3001e32e)" mask="url(#b29e7462-636b-4c54-95a0-920e291d9b2d)" data-fill-palette-color="tertiary"></rect><g><svg></svg></g><g><svg viewBox="0 0 395.52 247.2" height="247.2" width="395.52"><g transform="matrix(1,0,0,1,100.76929752024033,47.215199999999996)"><svg viewBox="0 0 193.98140495951932 152.7696" height="152.7696" width="193.98140495951932"><g><svg viewBox="0 0 244.43135999999998 192.50134363367758" height="152.7696" width="193.98140495951932"><g transform="matrix(1,0,0,1,0,143.00285346581188)"><svg viewBox="0 0 244.43135999999998 49.4984901678657" height="49.4984901678657" width="244.43135999999998"><g id="textblocktransform"><svg viewBox="0 0 244.43135999999998 49.4984901678657" height="49.4984901678657" width="244.43135999999998" id="textblock"><g><svg viewBox="0 0 244.43135999999998 49.4984901678657" height="49.4984901678657" width="244.43135999999998"><g transform="matrix(1,0,0,1,0,0)"><svg width="244.43135999999998" viewBox="4 -37.5 187.63 38" height="49.4984901678657" data-palette-color="url(#d13ce584-b1a3-48da-a854-034efcb6a404)"></svg></g></svg></g></svg></g></svg></g><g transform="matrix(1,0,0,1,62.39965883196311,0)"><svg viewBox="0 0 119.63204233607377 119.63204233607377" height="119.63204233607377" width="119.63204233607377"><g><svg></svg></g><g id="icon-0"><svg viewBox="0 0 119.63204233607377 119.63204233607377" height="119.63204233607377" width="119.63204233607377"><g></g><g transform="matrix(1,0,0,1,31.651650154090213,26.01683518225959)"><svg viewBox="0 0 56.32874202789334 67.59837197155458" height="67.59837197155458" width="56.32874202789334"><g><svg xmlns="http://www.w3.org/2000/svg" xmlns:xlink="http://www.w3.org/1999/xlink" version="1.1" x="0" y="0" viewBox="8.63 1.356 81.26700000000001 97.52600000000001" enable-background="new 0 0 100 100" xml:space="preserve" height="67.59837197155458" width="56.32874202789334" class="icon-cg-0" data-fill-palette-color="quaternary" id="cg-0"><g fill="#000000" data-fill-palette-color="quaternary"><path d="M81.774 9.483L77.71 1.356H49.265l0 0H20.819l-4.064 8.127L8.63 13.547v8.127h40.622l0 0h40.645v-8.127L81.774 9.483zM55.36 13.547H43.169c-1.132 0-2.033-0.911-2.033-2.031 0-1.127 0.901-2.033 2.033-2.033H55.36c1.119 0 2.032 0.906 2.032 2.033C57.393 12.636 56.479 13.547 55.36 13.547z" fill="#000000" data-fill-palette-color="quaternary"></path></g><path d="M80.273 39.176l1.501-13.438H16.743l1.387 12.443h-0.049l2.524 21.626 1.558 14.693 2.708 24.382h48.773l0 0 2.576-24.382 4.089-35.325H80.273zM70.783 71.633H27.758l-3.245-26.716h49.36L70.783 71.633z" fill="#000000" data-fill-palette-color="quaternary"></path></svg></g></svg></g></svg></g></svg></g><g></g></svg></g></svg></g><g><path d="M152.265 37.942A96.991 96.991 0 0 1 243.255 37.942L239.713 37.942A93.448 93.448 0 0 0 155.807 37.942L152.265 37.942M152.265 209.258A96.991 96.991 0 0 0 243.255 209.258L239.713 209.258A93.448 93.448 0 0 1 155.807 209.258L152.265 209.258" fill="url(#f48dc574-79c4-4539-ab90-bb5f3001e32e)" stroke="transparent" data-fill-palette-color="tertiary"></path></g></svg></g><defs></defs><mask id="02413ff4-22b4-4cb4-8c47-97afb5c2484a"><g id="SvgjsG1288"><svg viewBox="0 0 395.52 247.2" height="247.2" width="395.52"><g><svg></svg></g><g><svg viewBox="0 0 395.52 247.2" height="247.2" width="395.52"><g transform="matrix(1,0,0,1,100.76929752024033,47.215199999999996)"><svg viewBox="0 0 193.98140495951932 152.7696" height="152.7696" width="193.98140495951932"><g><svg viewBox="0 0 244.43135999999998 192.50134363367758" height="152.7696" width="193.98140495951932"><g transform="matrix(1,0,0,1,0,143.00285346581188)"><svg viewBox="0 0 244.43135999999998 49.4984901678657" height="49.4984901678657" width="244.43135999999998"><g id="SvgjsG1287"><svg viewBox="0 0 244.43135999999998 49.4984901678657" height="49.4984901678657" width="244.43135999999998" id="SvgjsSvg1286"><g><svg viewBox="0 0 244.43135999999998 49.4984901678657" height="49.4984901678657" width="244.43135999999998"><g transform="matrix(1,0,0,1,0,0)"><svg width="244.43135999999998" viewBox="4 -37.5 187.63 38" height="49.4984901678657" data-palette-color="url(#d13ce584-b1a3-48da-a854-034efcb6a404)"><path d="M17.2 0L4 0 4-35 15.05-35Q19.75-35 22.43-32.89 25.1-30.78 25.1-26.45L25.1-26.45Q25.1-23.53 23.83-21.3 22.55-19.07 20-18.4L20-18.4 20.7-19.2Q24.35-18.6 26.35-16.29 28.35-13.98 28.35-10L28.35-10Q28.35-5.4 25.39-2.7 22.43 0 17.2 0L17.2 0ZM8.75-16.15L8.75-4.3 16.8-4.3Q19.7-4.3 21.43-5.75 23.15-7.2 23.15-10.15L23.15-10.15Q23.15-13.45 21.39-14.8 19.63-16.15 16.8-16.15L16.8-16.15 8.75-16.15ZM8.75-30.75L8.75-20.45 14.45-20.45Q17-20.45 18.6-21.48 20.2-22.5 20.2-25.6L20.2-25.6Q20.2-28.68 18.6-29.71 17-30.75 14.45-30.75L14.45-30.75 8.75-30.75ZM37.1 0L32.6 0 32.6-24.5 37.1-24.5 37.1 0ZM37.1-30L32.6-30 32.6-35 37.1-35 37.1-30ZM50.15 0.5L50.15 0.5Q46.9 0.5 44.76-0.28 42.62-1.05 41.75-1.65L41.75-1.65 42.3-6Q43.1-5.3 45.12-4.4 47.15-3.5 49.95-3.5L49.95-3.5Q52.32-3.5 53.58-4.3 54.85-5.1 54.85-6.55L54.85-6.55Q54.85-7.83 54.03-8.61 53.22-9.4 52.08-9.86 50.95-10.33 49.95-10.6L49.95-10.6Q48.27-11.05 46.48-11.74 44.7-12.43 43.47-13.8 42.25-15.18 42.25-17.65L42.25-17.65Q42.25-19.53 43.15-21.21 44.05-22.9 46.07-23.95 48.1-25 51.45-25L51.45-25Q53.9-25 55.43-24.49 56.97-23.98 58.09-23.4L58.09-23.4 57.55-19.3Q56.47-20.2 55.05-20.83 53.62-21.45 51.55-21.45L51.55-21.45Q49.45-21.45 48.12-20.66 46.8-19.88 46.8-18.15L46.8-18.15Q46.8-16.43 48.21-15.7 49.62-14.98 52.5-14.1L52.5-14.1Q53.4-13.85 54.58-13.38 55.77-12.9 56.9-12.1 58.02-11.3 58.76-10.01 59.5-8.72 59.5-6.8L59.5-6.8Q59.5-5.18 58.72-3.49 57.95-1.8 55.92-0.65 53.9 0.5 50.15 0.5ZM71.64 0.5L70.19 0.5Q67.82 0.5 66.43-0.36 65.04-1.23 64.44-2.58 63.84-3.93 63.84-5.4L63.84-5.4 63.84-37.5 68.34-37.5 68.34-8Q68.34-5.9 68.62-4.85 68.89-3.8 69.73-3.45 70.57-3.1 72.29-3.1L72.29-3.1 71.64 0.5ZM87.19 0.5L87.19 0.5Q82.87 0.5 79.92-1.28 76.97-3.05 75.45-5.99 73.94-8.93 73.94-12.45L73.94-12.45Q73.94-15.88 75.35-18.73 76.77-21.58 79.45-23.29 82.14-25 85.94-25L85.94-25Q88.99-25 91.38-23.79 93.77-22.58 95.13-20.26 96.49-17.95 96.49-14.65L96.49-14.65Q96.49-14.13 96.45-13.51 96.42-12.9 96.29-12.25L96.29-12.25 78.54-12.25Q78.87-8.85 80.17-6.95 81.47-5.05 83.44-4.28 85.42-3.5 87.74-3.5L87.74-3.5Q89.44-3.5 91.29-3.85 93.14-4.2 94.79-4.95L94.79-4.95 95.39-1.4Q93.97-0.78 91.92-0.14 89.87 0.5 87.19 0.5ZM78.94-15.35L78.94-15.35 91.84-15.35Q91.84-17.07 91.19-18.35 90.54-19.63 89.22-20.31 87.89-21 85.84-21L85.84-21Q82.84-21 81.23-19.51 79.62-18.03 78.94-15.35ZM105.84 0L101.04 0 101.04-24.5 104.74-24.5 105.29-20.45Q107.16-22.78 108.88-23.89 110.59-25 112.54-25L112.54-25Q113.16-25 113.69-24.85L113.69-24.85 113.24-19.9Q112.91-19.98 112.55-20.01 112.19-20.05 111.74-20.05L111.74-20.05Q109.79-20.05 108.15-19.19 106.51-18.32 105.84-17.3L105.84-17.3 105.84 0ZM121.34 0L116.84 0 116.84-24.5 121.34-24.5 121.34 0ZM121.34-30L116.84-30 116.84-35 121.34-35 121.34-30ZM136.23 0.5L136.23 0.5Q133.36 0.5 131.33-0.66 129.31-1.83 128.25-4.2 127.18-6.58 127.18-10.25L127.18-10.25 127.18-24.5 131.68-24.5 131.68-11.5Q131.68-7.6 133.02-5.55 134.36-3.5 137.38-3.5L137.38-3.5Q139.46-3.5 141.23-4.5 143.01-5.5 143.68-7.7L143.68-7.7 143.03-5.25 143.03-24.5 147.53-24.5 147.53 0 143.53 0 142.63-4.8 143.83-4Q142.61-1.73 140.85-0.61 139.08 0.5 136.23 0.5ZM158.13 0L153.63 0 153.63-24.5 157.13-24.5 158.03-19.8 156.33-20.6Q158.63-23.08 160.81-24.04 162.98-25 165.38-25L165.38-25Q167.18-25 168.84-24.41 170.51-23.83 171.84-22.36 173.18-20.9 173.98-18.3L173.98-18.3 172.73-18.85Q173.83-21.7 176.11-23.35 178.38-25 182.23-25L182.23-25Q185.31-25 187.41-23.86 189.51-22.73 190.57-20.39 191.63-18.05 191.63-14.45L191.63-14.45 191.63 0 187.13 0 187.13-14.4Q187.13-17.85 185.78-19.43 184.43-21 181.38-21L181.38-21Q179.23-21 177.93-20.34 176.63-19.68 175.97-18.63 175.31-17.57 175.09-16.4 174.88-15.23 174.88-14.2L174.88-14.2 174.88 0 170.38 0 170.38-13.5Q170.38-16.5 169.66-18.13 168.93-19.75 167.63-20.38 166.33-21 164.63-21L164.63-21Q162.16-21 160.21-19.91 158.26-18.82 157.58-16.45L157.58-16.45 158.13-18.9 158.13 0Z" opacity="1" transform="matrix(1,0,0,1,0,0)" fill="white" class="wordmark-text-0" id="SvgjsPath1285"></path></svg></g></svg></g></svg></g></svg></g><g transform="matrix(1,0,0,1,62.39965883196311,0)"><svg viewBox="0 0 119.63204233607377 119.63204233607377" height="119.63204233607377" width="119.63204233607377"><g><svg></svg></g><g id="SvgjsG1284"><svg viewBox="0 0 119.63204233607377 119.63204233607377" height="119.63204233607377" width="119.63204233607377"><g><path d="M0 59.816c0-33.035 26.781-59.816 59.816-59.816 33.035 0 59.816 26.781 59.816 59.816 0 33.035-26.781 59.816-59.816 59.816-33.035 0-59.816-26.781-59.816-59.816zM59.816 115.168c30.57 0 55.352-24.782 55.352-55.352 0-30.57-24.782-55.352-55.352-55.352-30.57 0-55.352 24.782-55.352 55.352 0 30.57 24.782 55.352 55.352 55.352z" fill="black" stroke="transparent"></path><ellipse rx="59.21786095635651" ry="59.21786095635651" cx="59.81602116803688" cy="59.81602116803688" fill="black" stroke="transparent" stroke-width="0" fill-opacity="1"></ellipse></g><g transform="matrix(1,0,0,1,31.651650154090213,26.01683518225959)"><svg viewBox="0 0 56.32874202789334 67.59837197155458" height="67.59837197155458" width="56.32874202789334"><g><svg xmlns="http://www.w3.org/2000/svg" xmlns:xlink="http://www.w3.org/1999/xlink" version="1.1" x="0" y="0" viewBox="8.63 1.356 81.26700000000001 97.52600000000001" enable-background="new 0 0 100 100" xml:space="preserve" height="67.59837197155458" width="56.32874202789334" class="icon-cg-0" data-fill-palette-color="quaternary" id="SvgjsSvg1283"><g fill="black"><path d="M81.774 9.483L77.71 1.356H49.265l0 0H20.819l-4.064 8.127L8.63 13.547v8.127h40.622l0 0h40.645v-8.127L81.774 9.483zM55.36 13.547H43.169c-1.132 0-2.033-0.911-2.033-2.031 0-1.127 0.901-2.033 2.033-2.033H55.36c1.119 0 2.032 0.906 2.032 2.033C57.393 12.636 56.479 13.547 55.36 13.547z" fill="black"></path></g><path d="M80.273 39.176l1.501-13.438H16.743l1.387 12.443h-0.049l2.524 21.626 1.558 14.693 2.708 24.382h48.773l0 0 2.576-24.382 4.089-35.325H80.273zM70.783 71.633H27.758l-3.245-26.716h49.36L70.783 71.633z" fill="black"></path></svg></g></svg></g></svg></g></svg></g><g></g></svg></g></svg></g><g><path d="M152.265 37.942A96.991 96.991 0 0 1 243.255 37.942L239.713 37.942A93.448 93.448 0 0 0 155.807 37.942L152.265 37.942M152.265 209.258A96.991 96.991 0 0 0 243.255 209.258L239.713 209.258A93.448 93.448 0 0 1 155.807 209.258L152.265 209.258" fill="black" stroke="transparent"></path></g></svg></g><defs><mask></mask></defs></svg><rect width="395.52" height="247.2" fill="black" stroke="none" visibility="hidden"></rect></g></mask><linearGradient x1="0" x2="1" y1="0.578" y2="0.595" id="d13ce584-b1a3-48da-a854-034efcb6a404"><stop stop-color="#dede50" offset="0"></stop><stop stop-color="#559c49" offset="1"></stop></linearGradient><rect width="395.52" height="247.2" fill="url(#d13ce584-b1a3-48da-a854-034efcb6a404)" mask="url(#02413ff4-22b4-4cb4-8c47-97afb5c2484a)" data-fill-palette-color="primary"></rect><mask id="e131e12c-6354-4c5e-9005-29cf73107ee2"><g id="SvgjsG1311"><svg viewBox="0 0 395.52 247.2" height="247.2" width="395.52"><g><svg></svg></g><g><svg viewBox="0 0 395.52 247.2" height="247.2" width="395.52"><g transform="matrix(1,0,0,1,100.76929752024033,47.215199999999996)"><svg viewBox="0 0 193.98140495951932 152.7696" height="152.7696" width="193.98140495951932"><g><svg viewBox="0 0 244.43135999999998 192.50134363367758" height="152.7696" width="193.98140495951932"><g transform="matrix(1,0,0,1,0,143.00285346581188)"><svg viewBox="0 0 244.43135999999998 49.4984901678657" height="49.4984901678657" width="244.43135999999998"><g id="SvgjsG1310"><svg viewBox="0 0 244.43135999999998 49.4984901678657" height="49.4984901678657" width="244.43135999999998" id="SvgjsSvg1309"><g><svg viewBox="0 0 244.43135999999998 49.4984901678657" height="49.4984901678657" width="244.43135999999998"><g transform="matrix(1,0,0,1,0,0)"><svg width="244.43135999999998" viewBox="4 -37.5 187.63 38" height="49.4984901678657" data-palette-color="url(#d13ce584-b1a3-48da-a854-034efcb6a404)"></svg></g></svg></g></svg></g></svg></g><g transform="matrix(1,0,0,1,62.39965883196311,0)"><svg viewBox="0 0 119.63204233607377 119.63204233607377" height="119.63204233607377" width="119.63204233607377"><g><svg></svg></g><g id="SvgjsG1308"><svg viewBox="0 0 119.63204233607377 119.63204233607377" height="119.63204233607377" width="119.63204233607377"><g><path d="M0 59.816c0-33.035 26.781-59.816 59.816-59.816 33.035 0 59.816 26.781 59.816 59.816 0 33.035-26.781 59.816-59.816 59.816-33.035 0-59.816-26.781-59.816-59.816zM59.816 115.168c30.57 0 55.352-24.782 55.352-55.352 0-30.57-24.782-55.352-55.352-55.352-30.57 0-55.352 24.782-55.352 55.352 0 30.57 24.782 55.352 55.352 55.352z" fill="white" stroke="transparent"></path><ellipse rx="59.21786095635651" ry="59.21786095635651" cx="59.81602116803688" cy="59.81602116803688" fill="white" stroke="transparent" stroke-width="0" fill-opacity="1"></ellipse></g><g transform="matrix(1,0,0,1,31.651650154090213,26.01683518225959)"><svg viewBox="0 0 56.32874202789334 67.59837197155458" height="67.59837197155458" width="56.32874202789334"><g><svg xmlns="http://www.w3.org/2000/svg" xmlns:xlink="http://www.w3.org/1999/xlink" version="1.1" x="0" y="0" viewBox="8.63 1.356 81.26700000000001 97.52600000000001" enable-background="new 0 0 100 100" xml:space="preserve" height="67.59837197155458" width="56.32874202789334" class="icon-cg-0" data-fill-palette-color="quaternary" id="SvgjsSvg1307"><g fill="black"><path d="M81.774 9.483L77.71 1.356H49.265l0 0H20.819l-4.064 8.127L8.63 13.547v8.127h40.622l0 0h40.645v-8.127L81.774 9.483zM55.36 13.547H43.169c-1.132 0-2.033-0.911-2.033-2.031 0-1.127 0.901-2.033 2.033-2.033H55.36c1.119 0 2.032 0.906 2.032 2.033C57.393 12.636 56.479 13.547 55.36 13.547z" fill="black"></path></g><path d="M80.273 39.176l1.501-13.438H16.743l1.387 12.443h-0.049l2.524 21.626 1.558 14.693 2.708 24.382h48.773l0 0 2.576-24.382 4.089-35.325H80.273zM70.783 71.633H27.758l-3.245-26.716h49.36L70.783 71.633z" fill="black"></path></svg></g></svg></g></svg></g></svg></g><g></g></svg></g></svg></g><g><path d="M152.265 37.942A96.991 96.991 0 0 1 243.255 37.942L239.713 37.942A93.448 93.448 0 0 0 155.807 37.942L152.265 37.942M152.265 209.258A96.991 96.991 0 0 0 243.255 209.258L239.713 209.258A93.448 93.448 0 0 1 155.807 209.258L152.265 209.258" fill="black" stroke="transparent"></path></g></svg></g><defs><mask></mask></defs><mask><g id="SvgjsG1306"><svg viewBox="0 0 395.52 247.2" height="247.2" width="395.52"><g><svg></svg></g><g><svg viewBox="0 0 395.52 247.2" height="247.2" width="395.52"><g transform="matrix(1,0,0,1,100.76929752024033,47.215199999999996)"><svg viewBox="0 0 193.98140495951932 152.7696" height="152.7696" width="193.98140495951932"><g><svg viewBox="0 0 244.43135999999998 192.50134363367758" height="152.7696" width="193.98140495951932"><g transform="matrix(1,0,0,1,0,143.00285346581188)"><svg viewBox="0 0 244.43135999999998 49.4984901678657" height="49.4984901678657" width="244.43135999999998"><g id="SvgjsG1305"><svg viewBox="0 0 244.43135999999998 49.4984901678657" height="49.4984901678657" width="244.43135999999998" id="SvgjsSvg1304"><g><svg viewBox="0 0 244.43135999999998 49.4984901678657" height="49.4984901678657" width="244.43135999999998"><g transform="matrix(1,0,0,1,0,0)"><svg width="244.43135999999998" viewBox="4 -37.5 187.63 38" height="49.4984901678657" data-palette-color="url(#d13ce584-b1a3-48da-a854-034efcb6a404)"><path d="M17.2 0L4 0 4-35 15.05-35Q19.75-35 22.43-32.89 25.1-30.78 25.1-26.45L25.1-26.45Q25.1-23.53 23.83-21.3 22.55-19.07 20-18.4L20-18.4 20.7-19.2Q24.35-18.6 26.35-16.29 28.35-13.98 28.35-10L28.35-10Q28.35-5.4 25.39-2.7 22.43 0 17.2 0L17.2 0ZM8.75-16.15L8.75-4.3 16.8-4.3Q19.7-4.3 21.43-5.75 23.15-7.2 23.15-10.15L23.15-10.15Q23.15-13.45 21.39-14.8 19.63-16.15 16.8-16.15L16.8-16.15 8.75-16.15ZM8.75-30.75L8.75-20.45 14.45-20.45Q17-20.45 18.6-21.48 20.2-22.5 20.2-25.6L20.2-25.6Q20.2-28.68 18.6-29.71 17-30.75 14.45-30.75L14.45-30.75 8.75-30.75ZM37.1 0L32.6 0 32.6-24.5 37.1-24.5 37.1 0ZM37.1-30L32.6-30 32.6-35 37.1-35 37.1-30ZM50.15 0.5L50.15 0.5Q46.9 0.5 44.76-0.28 42.62-1.05 41.75-1.65L41.75-1.65 42.3-6Q43.1-5.3 45.12-4.4 47.15-3.5 49.95-3.5L49.95-3.5Q52.32-3.5 53.58-4.3 54.85-5.1 54.85-6.55L54.85-6.55Q54.85-7.83 54.03-8.61 53.22-9.4 52.08-9.86 50.95-10.33 49.95-10.6L49.95-10.6Q48.27-11.05 46.48-11.74 44.7-12.43 43.47-13.8 42.25-15.18 42.25-17.65L42.25-17.65Q42.25-19.53 43.15-21.21 44.05-22.9 46.07-23.95 48.1-25 51.45-25L51.45-25Q53.9-25 55.43-24.49 56.97-23.98 58.09-23.4L58.09-23.4 57.55-19.3Q56.47-20.2 55.05-20.83 53.62-21.45 51.55-21.45L51.55-21.45Q49.45-21.45 48.12-20.66 46.8-19.88 46.8-18.15L46.8-18.15Q46.8-16.43 48.21-15.7 49.62-14.98 52.5-14.1L52.5-14.1Q53.4-13.85 54.58-13.38 55.77-12.9 56.9-12.1 58.02-11.3 58.76-10.01 59.5-8.72 59.5-6.8L59.5-6.8Q59.5-5.18 58.72-3.49 57.95-1.8 55.92-0.65 53.9 0.5 50.15 0.5ZM71.64 0.5L70.19 0.5Q67.82 0.5 66.43-0.36 65.04-1.23 64.44-2.58 63.84-3.93 63.84-5.4L63.84-5.4 63.84-37.5 68.34-37.5 68.34-8Q68.34-5.9 68.62-4.85 68.89-3.8 69.73-3.45 70.57-3.1 72.29-3.1L72.29-3.1 71.64 0.5ZM87.19 0.5L87.19 0.5Q82.87 0.5 79.92-1.28 76.97-3.05 75.45-5.99 73.94-8.93 73.94-12.45L73.94-12.45Q73.94-15.88 75.35-18.73 76.77-21.58 79.45-23.29 82.14-25 85.94-25L85.94-25Q88.99-25 91.38-23.79 93.77-22.58 95.13-20.26 96.49-17.95 96.49-14.65L96.49-14.65Q96.49-14.13 96.45-13.51 96.42-12.9 96.29-12.25L96.29-12.25 78.54-12.25Q78.87-8.85 80.17-6.95 81.47-5.05 83.44-4.28 85.42-3.5 87.74-3.5L87.74-3.5Q89.44-3.5 91.29-3.85 93.14-4.2 94.79-4.95L94.79-4.95 95.39-1.4Q93.97-0.78 91.92-0.14 89.87 0.5 87.19 0.5ZM78.94-15.35L78.94-15.35 91.84-15.35Q91.84-17.07 91.19-18.35 90.54-19.63 89.22-20.31 87.89-21 85.84-21L85.84-21Q82.84-21 81.23-19.51 79.62-18.03 78.94-15.35ZM105.84 0L101.04 0 101.04-24.5 104.74-24.5 105.29-20.45Q107.16-22.78 108.88-23.89 110.59-25 112.54-25L112.54-25Q113.16-25 113.69-24.85L113.69-24.85 113.24-19.9Q112.91-19.98 112.55-20.01 112.19-20.05 111.74-20.05L111.74-20.05Q109.79-20.05 108.15-19.19 106.51-18.32 105.84-17.3L105.84-17.3 105.84 0ZM121.34 0L116.84 0 116.84-24.5 121.34-24.5 121.34 0ZM121.34-30L116.84-30 116.84-35 121.34-35 121.34-30ZM136.23 0.5L136.23 0.5Q133.36 0.5 131.33-0.66 129.31-1.83 128.25-4.2 127.18-6.58 127.18-10.25L127.18-10.25 127.18-24.5 131.68-24.5 131.68-11.5Q131.68-7.6 133.02-5.55 134.36-3.5 137.38-3.5L137.38-3.5Q139.46-3.5 141.23-4.5 143.01-5.5 143.68-7.7L143.68-7.7 143.03-5.25 143.03-24.5 147.53-24.5 147.53 0 143.53 0 142.63-4.8 143.83-4Q142.61-1.73 140.85-0.61 139.08 0.5 136.23 0.5ZM158.13 0L153.63 0 153.63-24.5 157.13-24.5 158.03-19.8 156.33-20.6Q158.63-23.08 160.81-24.04 162.98-25 165.38-25L165.38-25Q167.18-25 168.84-24.41 170.51-23.83 171.84-22.36 173.18-20.9 173.98-18.3L173.98-18.3 172.73-18.85Q173.83-21.7 176.11-23.35 178.38-25 182.23-25L182.23-25Q185.31-25 187.41-23.86 189.51-22.73 190.57-20.39 191.63-18.05 191.63-14.45L191.63-14.45 191.63 0 187.13 0 187.13-14.4Q187.13-17.85 185.78-19.43 184.43-21 181.38-21L181.38-21Q179.23-21 177.93-20.34 176.63-19.68 175.97-18.63 175.31-17.57 175.09-16.4 174.88-15.23 174.88-14.2L174.88-14.2 174.88 0 170.38 0 170.38-13.5Q170.38-16.5 169.66-18.13 168.93-19.75 167.63-20.38 166.33-21 164.63-21L164.63-21Q162.16-21 160.21-19.91 158.26-18.82 157.58-16.45L157.58-16.45 158.13-18.9 158.13 0Z" opacity="1" transform="matrix(1,0,0,1,0,0)" fill="black" class="wordmark-text-0" id="SvgjsPath1303"></path></svg></g></svg></g></svg></g></svg></g><g transform="matrix(1,0,0,1,62.39965883196311,0)"><svg viewBox="0 0 119.63204233607377 119.63204233607377" height="119.63204233607377" width="119.63204233607377"><g><svg></svg></g><g id="SvgjsG1302"><svg viewBox="0 0 119.63204233607377 119.63204233607377" height="119.63204233607377" width="119.63204233607377"><g><path d="M0 59.816c0-33.035 26.781-59.816 59.816-59.816 33.035 0 59.816 26.781 59.816 59.816 0 33.035-26.781 59.816-59.816 59.816-33.035 0-59.816-26.781-59.816-59.816zM59.816 115.168c30.57 0 55.352-24.782 55.352-55.352 0-30.57-24.782-55.352-55.352-55.352-30.57 0-55.352 24.782-55.352 55.352 0 30.57 24.782 55.352 55.352 55.352z" fill="black" stroke="transparent"></path><ellipse rx="59.21786095635651" ry="59.21786095635651" cx="59.81602116803688" cy="59.81602116803688" fill="black" stroke="transparent" stroke-width="0" fill-opacity="1"></ellipse></g><g transform="matrix(1,0,0,1,31.651650154090213,26.01683518225959)"><svg viewBox="0 0 56.32874202789334 67.59837197155458" height="67.59837197155458" width="56.32874202789334"><g><svg xmlns="http://www.w3.org/2000/svg" xmlns:xlink="http://www.w3.org/1999/xlink" version="1.1" x="0" y="0" viewBox="8.63 1.356 81.26700000000001 97.52600000000001" enable-background="new 0 0 100 100" xml:space="preserve" height="67.59837197155458" width="56.32874202789334" class="icon-cg-0" data-fill-palette-color="quaternary" id="SvgjsSvg1301"><g fill="black"><path d="M81.774 9.483L77.71 1.356H49.265l0 0H20.819l-4.064 8.127L8.63 13.547v8.127h40.622l0 0h40.645v-8.127L81.774 9.483zM55.36 13.547H43.169c-1.132 0-2.033-0.911-2.033-2.031 0-1.127 0.901-2.033 2.033-2.033H55.36c1.119 0 2.032 0.906 2.032 2.033C57.393 12.636 56.479 13.547 55.36 13.547z" fill="black"></path></g><path d="M80.273 39.176l1.501-13.438H16.743l1.387 12.443h-0.049l2.524 21.626 1.558 14.693 2.708 24.382h48.773l0 0 2.576-24.382 4.089-35.325H80.273zM70.783 71.633H27.758l-3.245-26.716h49.36L70.783 71.633z" fill="black"></path></svg></g></svg></g></svg></g></svg></g><g></g></svg></g></svg></g><g><path d="M152.265 37.942A96.991 96.991 0 0 1 243.255 37.942L239.713 37.942A93.448 93.448 0 0 0 155.807 37.942L152.265 37.942M152.265 209.258A96.991 96.991 0 0 0 243.255 209.258L239.713 209.258A93.448 93.448 0 0 1 155.807 209.258L152.265 209.258" fill="black" stroke="transparent"></path></g></svg></g><defs><mask></mask></defs></svg><rect width="395.52" height="247.2" fill="black" stroke="none" visibility="hidden"></rect></g></mask></svg><rect width="395.52" height="247.2" fill="black" stroke="none" visibility="hidden"></rect></g></mask><linearGradient x1="0" x2="1" y1="0.578" y2="0.595" id="439aad68-a5a6-427c-b3d8-d4181395be60"><stop stop-color="#dede50" offset="0"></stop><stop stop-color="#559c49" offset="1"></stop></linearGradient><rect width="395.52" height="247.2" fill="url(#439aad68-a5a6-427c-b3d8-d4181395be60)" mask="url(#e131e12c-6354-4c5e-9005-29cf73107ee2)" data-fill-palette-color="accent"></rect><mask id="b29e7462-636b-4c54-95a0-920e291d9b2d"><g id="SvgjsG1333"><svg viewBox="0 0 395.52 247.2" height="247.2" width="395.52"><g><svg></svg></g><g><svg viewBox="0 0 395.52 247.2" height="247.2" width="395.52"><g transform="matrix(1,0,0,1,100.76929752024033,47.215199999999996)"><svg viewBox="0 0 193.98140495951932 152.7696" height="152.7696" width="193.98140495951932"><g><svg viewBox="0 0 244.43135999999998 192.50134363367758" height="152.7696" width="193.98140495951932"><g transform="matrix(1,0,0,1,0,143.00285346581188)"><svg viewBox="0 0 244.43135999999998 49.4984901678657" height="49.4984901678657" width="244.43135999999998"><g id="SvgjsG1332"><svg viewBox="0 0 244.43135999999998 49.4984901678657" height="49.4984901678657" width="244.43135999999998" id="SvgjsSvg1331"><g><svg viewBox="0 0 244.43135999999998 49.4984901678657" height="49.4984901678657" width="244.43135999999998"><g transform="matrix(1,0,0,1,0,0)"><svg width="244.43135999999998" viewBox="4 -37.5 187.63 38" height="49.4984901678657" data-palette-color="url(#d13ce584-b1a3-48da-a854-034efcb6a404)"></svg></g></svg></g></svg></g></svg></g><g transform="matrix(1,0,0,1,62.39965883196311,0)"><svg viewBox="0 0 119.63204233607377 119.63204233607377" height="119.63204233607377" width="119.63204233607377"><g><svg></svg></g><g id="SvgjsG1330"><svg viewBox="0 0 119.63204233607377 119.63204233607377" height="119.63204233607377" width="119.63204233607377"><g></g><g transform="matrix(1,0,0,1,31.651650154090213,26.01683518225959)"><svg viewBox="0 0 56.32874202789334 67.59837197155458" height="67.59837197155458" width="56.32874202789334"><g><svg xmlns="http://www.w3.org/2000/svg" xmlns:xlink="http://www.w3.org/1999/xlink" version="1.1" x="0" y="0" viewBox="8.63 1.356 81.26700000000001 97.52600000000001" enable-background="new 0 0 100 100" xml:space="preserve" height="67.59837197155458" width="56.32874202789334" class="icon-cg-0" data-fill-palette-color="quaternary" id="SvgjsSvg1329"><g fill="black"><path d="M81.774 9.483L77.71 1.356H49.265l0 0H20.819l-4.064 8.127L8.63 13.547v8.127h40.622l0 0h40.645v-8.127L81.774 9.483zM55.36 13.547H43.169c-1.132 0-2.033-0.911-2.033-2.031 0-1.127 0.901-2.033 2.033-2.033H55.36c1.119 0 2.032 0.906 2.032 2.033C57.393 12.636 56.479 13.547 55.36 13.547z" fill="black"></path></g><path d="M80.273 39.176l1.501-13.438H16.743l1.387 12.443h-0.049l2.524 21.626 1.558 14.693 2.708 24.382h48.773l0 0 2.576-24.382 4.089-35.325H80.273zM70.783 71.633H27.758l-3.245-26.716h49.36L70.783 71.633z" fill="black"></path></svg></g></svg></g></svg></g></svg></g><g></g></svg></g></svg></g><g><path d="M152.265 37.942A96.991 96.991 0 0 1 243.255 37.942L239.713 37.942A93.448 93.448 0 0 0 155.807 37.942L152.265 37.942M152.265 209.258A96.991 96.991 0 0 0 243.255 209.258L239.713 209.258A93.448 93.448 0 0 1 155.807 209.258L152.265 209.258" fill="white" stroke="transparent"></path></g></svg></g><defs><mask></mask></defs><mask><g id="SvgjsG1328"><svg viewBox="0 0 395.52 247.2" height="247.2" width="395.52"><g><svg></svg></g><g><svg viewBox="0 0 395.52 247.2" height="247.2" width="395.52"><g transform="matrix(1,0,0,1,100.76929752024033,47.215199999999996)"><svg viewBox="0 0 193.98140495951932 152.7696" height="152.7696" width="193.98140495951932"><g><svg viewBox="0 0 244.43135999999998 192.50134363367758" height="152.7696" width="193.98140495951932"><g transform="matrix(1,0,0,1,0,143.00285346581188)"><svg viewBox="0 0 244.43135999999998 49.4984901678657" height="49.4984901678657" width="244.43135999999998"><g id="SvgjsG1327"><svg viewBox="0 0 244.43135999999998 49.4984901678657" height="49.4984901678657" width="244.43135999999998" id="SvgjsSvg1326"><g><svg viewBox="0 0 244.43135999999998 49.4984901678657" height="49.4984901678657" width="244.43135999999998"><g transform="matrix(1,0,0,1,0,0)"><svg width="244.43135999999998" viewBox="4 -37.5 187.63 38" height="49.4984901678657" data-palette-color="url(#d13ce584-b1a3-48da-a854-034efcb6a404)"><path d="M17.2 0L4 0 4-35 15.05-35Q19.75-35 22.43-32.89 25.1-30.78 25.1-26.45L25.1-26.45Q25.1-23.53 23.83-21.3 22.55-19.07 20-18.4L20-18.4 20.7-19.2Q24.35-18.6 26.35-16.29 28.35-13.98 28.35-10L28.35-10Q28.35-5.4 25.39-2.7 22.43 0 17.2 0L17.2 0ZM8.75-16.15L8.75-4.3 16.8-4.3Q19.7-4.3 21.43-5.75 23.15-7.2 23.15-10.15L23.15-10.15Q23.15-13.45 21.39-14.8 19.63-16.15 16.8-16.15L16.8-16.15 8.75-16.15ZM8.75-30.75L8.75-20.45 14.45-20.45Q17-20.45 18.6-21.48 20.2-22.5 20.2-25.6L20.2-25.6Q20.2-28.68 18.6-29.71 17-30.75 14.45-30.75L14.45-30.75 8.75-30.75ZM37.1 0L32.6 0 32.6-24.5 37.1-24.5 37.1 0ZM37.1-30L32.6-30 32.6-35 37.1-35 37.1-30ZM50.15 0.5L50.15 0.5Q46.9 0.5 44.76-0.28 42.62-1.05 41.75-1.65L41.75-1.65 42.3-6Q43.1-5.3 45.12-4.4 47.15-3.5 49.95-3.5L49.95-3.5Q52.32-3.5 53.58-4.3 54.85-5.1 54.85-6.55L54.85-6.55Q54.85-7.83 54.03-8.61 53.22-9.4 52.08-9.86 50.95-10.33 49.95-10.6L49.95-10.6Q48.27-11.05 46.48-11.74 44.7-12.43 43.47-13.8 42.25-15.18 42.25-17.65L42.25-17.65Q42.25-19.53 43.15-21.21 44.05-22.9 46.07-23.95 48.1-25 51.45-25L51.45-25Q53.9-25 55.43-24.49 56.97-23.98 58.09-23.4L58.09-23.4 57.55-19.3Q56.47-20.2 55.05-20.83 53.62-21.45 51.55-21.45L51.55-21.45Q49.45-21.45 48.12-20.66 46.8-19.88 46.8-18.15L46.8-18.15Q46.8-16.43 48.21-15.7 49.62-14.98 52.5-14.1L52.5-14.1Q53.4-13.85 54.58-13.38 55.77-12.9 56.9-12.1 58.02-11.3 58.76-10.01 59.5-8.72 59.5-6.8L59.5-6.8Q59.5-5.18 58.72-3.49 57.95-1.8 55.92-0.65 53.9 0.5 50.15 0.5ZM71.64 0.5L70.19 0.5Q67.82 0.5 66.43-0.36 65.04-1.23 64.44-2.58 63.84-3.93 63.84-5.4L63.84-5.4 63.84-37.5 68.34-37.5 68.34-8Q68.34-5.9 68.62-4.85 68.89-3.8 69.73-3.45 70.57-3.1 72.29-3.1L72.29-3.1 71.64 0.5ZM87.19 0.5L87.19 0.5Q82.87 0.5 79.92-1.28 76.97-3.05 75.45-5.99 73.94-8.93 73.94-12.45L73.94-12.45Q73.94-15.88 75.35-18.73 76.77-21.58 79.45-23.29 82.14-25 85.94-25L85.94-25Q88.99-25 91.38-23.79 93.77-22.58 95.13-20.26 96.49-17.95 96.49-14.65L96.49-14.65Q96.49-14.13 96.45-13.51 96.42-12.9 96.29-12.25L96.29-12.25 78.54-12.25Q78.87-8.85 80.17-6.95 81.47-5.05 83.44-4.28 85.42-3.5 87.74-3.5L87.74-3.5Q89.44-3.5 91.29-3.85 93.14-4.2 94.79-4.95L94.79-4.95 95.39-1.4Q93.97-0.78 91.92-0.14 89.87 0.5 87.19 0.5ZM78.94-15.35L78.94-15.35 91.84-15.35Q91.84-17.07 91.19-18.35 90.54-19.63 89.22-20.31 87.89-21 85.84-21L85.84-21Q82.84-21 81.23-19.51 79.62-18.03 78.94-15.35ZM105.84 0L101.04 0 101.04-24.5 104.74-24.5 105.29-20.45Q107.16-22.78 108.88-23.89 110.59-25 112.54-25L112.54-25Q113.16-25 113.69-24.85L113.69-24.85 113.24-19.9Q112.91-19.98 112.55-20.01 112.19-20.05 111.74-20.05L111.74-20.05Q109.79-20.05 108.15-19.19 106.51-18.32 105.84-17.3L105.84-17.3 105.84 0ZM121.34 0L116.84 0 116.84-24.5 121.34-24.5 121.34 0ZM121.34-30L116.84-30 116.84-35 121.34-35 121.34-30ZM136.23 0.5L136.23 0.5Q133.36 0.5 131.33-0.66 129.31-1.83 128.25-4.2 127.18-6.58 127.18-10.25L127.18-10.25 127.18-24.5 131.68-24.5 131.68-11.5Q131.68-7.6 133.02-5.55 134.36-3.5 137.38-3.5L137.38-3.5Q139.46-3.5 141.23-4.5 143.01-5.5 143.68-7.7L143.68-7.7 143.03-5.25 143.03-24.5 147.53-24.5 147.53 0 143.53 0 142.63-4.8 143.83-4Q142.61-1.73 140.85-0.61 139.08 0.5 136.23 0.5ZM158.13 0L153.63 0 153.63-24.5 157.13-24.5 158.03-19.8 156.33-20.6Q158.63-23.08 160.81-24.04 162.98-25 165.38-25L165.38-25Q167.18-25 168.84-24.41 170.51-23.83 171.84-22.36 173.18-20.9 173.98-18.3L173.98-18.3 172.73-18.85Q173.83-21.7 176.11-23.35 178.38-25 182.23-25L182.23-25Q185.31-25 187.41-23.86 189.51-22.73 190.57-20.39 191.63-18.05 191.63-14.45L191.63-14.45 191.63 0 187.13 0 187.13-14.4Q187.13-17.85 185.78-19.43 184.43-21 181.38-21L181.38-21Q179.23-21 177.93-20.34 176.63-19.68 175.97-18.63 175.31-17.57 175.09-16.4 174.88-15.23 174.88-14.2L174.88-14.2 174.88 0 170.38 0 170.38-13.5Q170.38-16.5 169.66-18.13 168.93-19.75 167.63-20.38 166.33-21 164.63-21L164.63-21Q162.16-21 160.21-19.91 158.26-18.82 157.58-16.45L157.58-16.45 158.13-18.9 158.13 0Z" opacity="1" transform="matrix(1,0,0,1,0,0)" fill="black" class="wordmark-text-0" id="SvgjsPath1325"></path></svg></g></svg></g></svg></g></svg></g><g transform="matrix(1,0,0,1,62.39965883196311,0)"><svg viewBox="0 0 119.63204233607377 119.63204233607377" height="119.63204233607377" width="119.63204233607377"><g><svg></svg></g><g id="SvgjsG1324"><svg viewBox="0 0 119.63204233607377 119.63204233607377" height="119.63204233607377" width="119.63204233607377"><g><path d="M0 59.816c0-33.035 26.781-59.816 59.816-59.816 33.035 0 59.816 26.781 59.816 59.816 0 33.035-26.781 59.816-59.816 59.816-33.035 0-59.816-26.781-59.816-59.816zM59.816 115.168c30.57 0 55.352-24.782 55.352-55.352 0-30.57-24.782-55.352-55.352-55.352-30.57 0-55.352 24.782-55.352 55.352 0 30.57 24.782 55.352 55.352 55.352z" fill="black" stroke="transparent"></path><ellipse rx="59.21786095635651" ry="59.21786095635651" cx="59.81602116803688" cy="59.81602116803688" fill="black" stroke="transparent" stroke-width="0" fill-opacity="1"></ellipse></g><g transform="matrix(1,0,0,1,31.651650154090213,26.01683518225959)"><svg viewBox="0 0 56.32874202789334 67.59837197155458" height="67.59837197155458" width="56.32874202789334"><g><svg xmlns="http://www.w3.org/2000/svg" xmlns:xlink="http://www.w3.org/1999/xlink" version="1.1" x="0" y="0" viewBox="8.63 1.356 81.26700000000001 97.52600000000001" enable-background="new 0 0 100 100" xml:space="preserve" height="67.59837197155458" width="56.32874202789334" class="icon-cg-0" data-fill-palette-color="quaternary" id="SvgjsSvg1323"><g fill="black"><path d="M81.774 9.483L77.71 1.356H49.265l0 0H20.819l-4.064 8.127L8.63 13.547v8.127h40.622l0 0h40.645v-8.127L81.774 9.483zM55.36 13.547H43.169c-1.132 0-2.033-0.911-2.033-2.031 0-1.127 0.901-2.033 2.033-2.033H55.36c1.119 0 2.032 0.906 2.032 2.033C57.393 12.636 56.479 13.547 55.36 13.547z" fill="black"></path></g><path d="M80.273 39.176l1.501-13.438H16.743l1.387 12.443h-0.049l2.524 21.626 1.558 14.693 2.708 24.382h48.773l0 0 2.576-24.382 4.089-35.325H80.273zM70.783 71.633H27.758l-3.245-26.716h49.36L70.783 71.633z" fill="black"></path></svg></g></svg></g></svg></g></svg></g><g></g></svg></g></svg></g><g><path d="M152.265 37.942A96.991 96.991 0 0 1 243.255 37.942L239.713 37.942A93.448 93.448 0 0 0 155.807 37.942L152.265 37.942M152.265 209.258A96.991 96.991 0 0 0 243.255 209.258L239.713 209.258A93.448 93.448 0 0 1 155.807 209.258L152.265 209.258" fill="black" stroke="transparent"></path></g></svg></g><defs><mask></mask></defs></svg><rect width="395.52" height="247.2" fill="black" stroke="none" visibility="hidden"></rect></g></mask><mask><g id="SvgjsG1322"><svg viewBox="0 0 395.52 247.2" height="247.2" width="395.52"><g><svg></svg></g><g><svg viewBox="0 0 395.52 247.2" height="247.2" width="395.52"><g transform="matrix(1,0,0,1,100.76929752024033,47.215199999999996)"><svg viewBox="0 0 193.98140495951932 152.7696" height="152.7696" width="193.98140495951932"><g><svg viewBox="0 0 244.43135999999998 192.50134363367758" height="152.7696" width="193.98140495951932"><g transform="matrix(1,0,0,1,0,143.00285346581188)"><svg viewBox="0 0 244.43135999999998 49.4984901678657" height="49.4984901678657" width="244.43135999999998"><g id="SvgjsG1321"><svg viewBox="0 0 244.43135999999998 49.4984901678657" height="49.4984901678657" width="244.43135999999998" id="SvgjsSvg1320"><g><svg viewBox="0 0 244.43135999999998 49.4984901678657" height="49.4984901678657" width="244.43135999999998"><g transform="matrix(1,0,0,1,0,0)"><svg width="244.43135999999998" viewBox="4 -37.5 187.63 38" height="49.4984901678657" data-palette-color="url(#d13ce584-b1a3-48da-a854-034efcb6a404)"></svg></g></svg></g></svg></g></svg></g><g transform="matrix(1,0,0,1,62.39965883196311,0)"><svg viewBox="0 0 119.63204233607377 119.63204233607377" height="119.63204233607377" width="119.63204233607377"><g><svg></svg></g><g id="SvgjsG1319"><svg viewBox="0 0 119.63204233607377 119.63204233607377" height="119.63204233607377" width="119.63204233607377"><g><path d="M0 59.816c0-33.035 26.781-59.816 59.816-59.816 33.035 0 59.816 26.781 59.816 59.816 0 33.035-26.781 59.816-59.816 59.816-33.035 0-59.816-26.781-59.816-59.816zM59.816 115.168c30.57 0 55.352-24.782 55.352-55.352 0-30.57-24.782-55.352-55.352-55.352-30.57 0-55.352 24.782-55.352 55.352 0 30.57 24.782 55.352 55.352 55.352z" fill="black" stroke="transparent"></path><ellipse rx="59.21786095635651" ry="59.21786095635651" cx="59.81602116803688" cy="59.81602116803688" fill="black" stroke="transparent" stroke-width="0" fill-opacity="1"></ellipse></g><g transform="matrix(1,0,0,1,31.651650154090213,26.01683518225959)"><svg viewBox="0 0 56.32874202789334 67.59837197155458" height="67.59837197155458" width="56.32874202789334"><g><svg xmlns="http://www.w3.org/2000/svg" xmlns:xlink="http://www.w3.org/1999/xlink" version="1.1" x="0" y="0" viewBox="8.63 1.356 81.26700000000001 97.52600000000001" enable-background="new 0 0 100 100" xml:space="preserve" height="67.59837197155458" width="56.32874202789334" class="icon-cg-0" data-fill-palette-color="quaternary" id="SvgjsSvg1318"><g fill="black"><path d="M81.774 9.483L77.71 1.356H49.265l0 0H20.819l-4.064 8.127L8.63 13.547v8.127h40.622l0 0h40.645v-8.127L81.774 9.483zM55.36 13.547H43.169c-1.132 0-2.033-0.911-2.033-2.031 0-1.127 0.901-2.033 2.033-2.033H55.36c1.119 0 2.032 0.906 2.032 2.033C57.393 12.636 56.479 13.547 55.36 13.547z" fill="black"></path></g><path d="M80.273 39.176l1.501-13.438H16.743l1.387 12.443h-0.049l2.524 21.626 1.558 14.693 2.708 24.382h48.773l0 0 2.576-24.382 4.089-35.325H80.273zM70.783 71.633H27.758l-3.245-26.716h49.36L70.783 71.633z" fill="black"></path></svg></g></svg></g></svg></g></svg></g><g></g></svg></g></svg></g><g><path d="M152.265 37.942A96.991 96.991 0 0 1 243.255 37.942L239.713 37.942A93.448 93.448 0 0 0 155.807 37.942L152.265 37.942M152.265 209.258A96.991 96.991 0 0 0 243.255 209.258L239.713 209.258A93.448 93.448 0 0 1 155.807 209.258L152.265 209.258" fill="black" stroke="transparent"></path></g></svg></g><defs><mask></mask></defs><mask><g id="SvgjsG1317"><svg viewBox="0 0 395.52 247.2" height="247.2" width="395.52"><g><svg></svg></g><g><svg viewBox="0 0 395.52 247.2" height="247.2" width="395.52"><g transform="matrix(1,0,0,1,100.76929752024033,47.215199999999996)"><svg viewBox="0 0 193.98140495951932 152.7696" height="152.7696" width="193.98140495951932"><g><svg viewBox="0 0 244.43135999999998 192.50134363367758" height="152.7696" width="193.98140495951932"><g transform="matrix(1,0,0,1,0,143.00285346581188)"><svg viewBox="0 0 244.43135999999998 49.4984901678657" height="49.4984901678657" width="244.43135999999998"><g id="SvgjsG1316"><svg viewBox="0 0 244.43135999999998 49.4984901678657" height="49.4984901678657" width="244.43135999999998" id="SvgjsSvg1315"><g><svg viewBox="0 0 244.43135999999998 49.4984901678657" height="49.4984901678657" width="244.43135999999998"><g transform="matrix(1,0,0,1,0,0)"><svg width="244.43135999999998" viewBox="4 -37.5 187.63 38" height="49.4984901678657" data-palette-color="url(#d13ce584-b1a3-48da-a854-034efcb6a404)"><path d="M17.2 0L4 0 4-35 15.05-35Q19.75-35 22.43-32.89 25.1-30.78 25.1-26.45L25.1-26.45Q25.1-23.53 23.83-21.3 22.55-19.07 20-18.4L20-18.4 20.7-19.2Q24.35-18.6 26.35-16.29 28.35-13.98 28.35-10L28.35-10Q28.35-5.4 25.39-2.7 22.43 0 17.2 0L17.2 0ZM8.75-16.15L8.75-4.3 16.8-4.3Q19.7-4.3 21.43-5.75 23.15-7.2 23.15-10.15L23.15-10.15Q23.15-13.45 21.39-14.8 19.63-16.15 16.8-16.15L16.8-16.15 8.75-16.15ZM8.75-30.75L8.75-20.45 14.45-20.45Q17-20.45 18.6-21.48 20.2-22.5 20.2-25.6L20.2-25.6Q20.2-28.68 18.6-29.71 17-30.75 14.45-30.75L14.45-30.75 8.75-30.75ZM37.1 0L32.6 0 32.6-24.5 37.1-24.5 37.1 0ZM37.1-30L32.6-30 32.6-35 37.1-35 37.1-30ZM50.15 0.5L50.15 0.5Q46.9 0.5 44.76-0.28 42.62-1.05 41.75-1.65L41.75-1.65 42.3-6Q43.1-5.3 45.12-4.4 47.15-3.5 49.95-3.5L49.95-3.5Q52.32-3.5 53.58-4.3 54.85-5.1 54.85-6.55L54.85-6.55Q54.85-7.83 54.03-8.61 53.22-9.4 52.08-9.86 50.95-10.33 49.95-10.6L49.95-10.6Q48.27-11.05 46.48-11.74 44.7-12.43 43.47-13.8 42.25-15.18 42.25-17.65L42.25-17.65Q42.25-19.53 43.15-21.21 44.05-22.9 46.07-23.95 48.1-25 51.45-25L51.45-25Q53.9-25 55.43-24.49 56.97-23.98 58.09-23.4L58.09-23.4 57.55-19.3Q56.47-20.2 55.05-20.83 53.62-21.45 51.55-21.45L51.55-21.45Q49.45-21.45 48.12-20.66 46.8-19.88 46.8-18.15L46.8-18.15Q46.8-16.43 48.21-15.7 49.62-14.98 52.5-14.1L52.5-14.1Q53.4-13.85 54.58-13.38 55.77-12.9 56.9-12.1 58.02-11.3 58.76-10.01 59.5-8.72 59.5-6.8L59.5-6.8Q59.5-5.18 58.72-3.49 57.95-1.8 55.92-0.65 53.9 0.5 50.15 0.5ZM71.64 0.5L70.19 0.5Q67.82 0.5 66.43-0.36 65.04-1.23 64.44-2.58 63.84-3.93 63.84-5.4L63.84-5.4 63.84-37.5 68.34-37.5 68.34-8Q68.34-5.9 68.62-4.85 68.89-3.8 69.73-3.45 70.57-3.1 72.29-3.1L72.29-3.1 71.64 0.5ZM87.19 0.5L87.19 0.5Q82.87 0.5 79.92-1.28 76.97-3.05 75.45-5.99 73.94-8.93 73.94-12.45L73.94-12.45Q73.94-15.88 75.35-18.73 76.77-21.58 79.45-23.29 82.14-25 85.94-25L85.94-25Q88.99-25 91.38-23.79 93.77-22.58 95.13-20.26 96.49-17.95 96.49-14.65L96.49-14.65Q96.49-14.13 96.45-13.51 96.42-12.9 96.29-12.25L96.29-12.25 78.54-12.25Q78.87-8.85 80.17-6.95 81.47-5.05 83.44-4.28 85.42-3.5 87.74-3.5L87.74-3.5Q89.44-3.5 91.29-3.85 93.14-4.2 94.79-4.95L94.79-4.95 95.39-1.4Q93.97-0.78 91.92-0.14 89.87 0.5 87.19 0.5ZM78.94-15.35L78.94-15.35 91.84-15.35Q91.84-17.07 91.19-18.35 90.54-19.63 89.22-20.31 87.89-21 85.84-21L85.84-21Q82.84-21 81.23-19.51 79.62-18.03 78.94-15.35ZM105.84 0L101.04 0 101.04-24.5 104.74-24.5 105.29-20.45Q107.16-22.78 108.88-23.89 110.59-25 112.54-25L112.54-25Q113.16-25 113.69-24.85L113.69-24.85 113.24-19.9Q112.91-19.98 112.55-20.01 112.19-20.05 111.74-20.05L111.74-20.05Q109.79-20.05 108.15-19.19 106.51-18.32 105.84-17.3L105.84-17.3 105.84 0ZM121.34 0L116.84 0 116.84-24.5 121.34-24.5 121.34 0ZM121.34-30L116.84-30 116.84-35 121.34-35 121.34-30ZM136.23 0.5L136.23 0.5Q133.36 0.5 131.33-0.66 129.31-1.83 128.25-4.2 127.18-6.58 127.18-10.25L127.18-10.25 127.18-24.5 131.68-24.5 131.68-11.5Q131.68-7.6 133.02-5.55 134.36-3.5 137.38-3.5L137.38-3.5Q139.46-3.5 141.23-4.5 143.01-5.5 143.68-7.7L143.68-7.7 143.03-5.25 143.03-24.5 147.53-24.5 147.53 0 143.53 0 142.63-4.8 143.83-4Q142.61-1.73 140.85-0.61 139.08 0.5 136.23 0.5ZM158.13 0L153.63 0 153.63-24.5 157.13-24.5 158.03-19.8 156.33-20.6Q158.63-23.08 160.81-24.04 162.98-25 165.38-25L165.38-25Q167.18-25 168.84-24.41 170.51-23.83 171.84-22.36 173.18-20.9 173.98-18.3L173.98-18.3 172.73-18.85Q173.83-21.7 176.11-23.35 178.38-25 182.23-25L182.23-25Q185.31-25 187.41-23.86 189.51-22.73 190.57-20.39 191.63-18.05 191.63-14.45L191.63-14.45 191.63 0 187.13 0 187.13-14.4Q187.13-17.85 185.78-19.43 184.43-21 181.38-21L181.38-21Q179.23-21 177.93-20.34 176.63-19.68 175.97-18.63 175.31-17.57 175.09-16.4 174.88-15.23 174.88-14.2L174.88-14.2 174.88 0 170.38 0 170.38-13.5Q170.38-16.5 169.66-18.13 168.93-19.75 167.63-20.38 166.33-21 164.63-21L164.63-21Q162.16-21 160.21-19.91 158.26-18.82 157.58-16.45L157.58-16.45 158.13-18.9 158.13 0Z" opacity="1" transform="matrix(1,0,0,1,0,0)" fill="black" class="wordmark-text-0" id="SvgjsPath1314"></path></svg></g></svg></g></svg></g></svg></g><g transform="matrix(1,0,0,1,62.39965883196311,0)"><svg viewBox="0 0 119.63204233607377 119.63204233607377" height="119.63204233607377" width="119.63204233607377"><g><svg></svg></g><g id="SvgjsG1313"><svg viewBox="0 0 119.63204233607377 119.63204233607377" height="119.63204233607377" width="119.63204233607377"><g><path d="M0 59.816c0-33.035 26.781-59.816 59.816-59.816 33.035 0 59.816 26.781 59.816 59.816 0 33.035-26.781 59.816-59.816 59.816-33.035 0-59.816-26.781-59.816-59.816zM59.816 115.168c30.57 0 55.352-24.782 55.352-55.352 0-30.57-24.782-55.352-55.352-55.352-30.57 0-55.352 24.782-55.352 55.352 0 30.57 24.782 55.352 55.352 55.352z" fill="black" stroke="transparent"></path><ellipse rx="59.21786095635651" ry="59.21786095635651" cx="59.81602116803688" cy="59.81602116803688" fill="black" stroke="transparent" stroke-width="0" fill-opacity="1"></ellipse></g><g transform="matrix(1,0,0,1,31.651650154090213,26.01683518225959)"><svg viewBox="0 0 56.32874202789334 67.59837197155458" height="67.59837197155458" width="56.32874202789334"><g><svg xmlns="http://www.w3.org/2000/svg" xmlns:xlink="http://www.w3.org/1999/xlink" version="1.1" x="0" y="0" viewBox="8.63 1.356 81.26700000000001 97.52600000000001" enable-background="new 0 0 100 100" xml:space="preserve" height="67.59837197155458" width="56.32874202789334" class="icon-cg-0" data-fill-palette-color="quaternary" id="SvgjsSvg1312"><g fill="black"><path d="M81.774 9.483L77.71 1.356H49.265l0 0H20.819l-4.064 8.127L8.63 13.547v8.127h40.622l0 0h40.645v-8.127L81.774 9.483zM55.36 13.547H43.169c-1.132 0-2.033-0.911-2.033-2.031 0-1.127 0.901-2.033 2.033-2.033H55.36c1.119 0 2.032 0.906 2.032 2.033C57.393 12.636 56.479 13.547 55.36 13.547z" fill="black"></path></g><path d="M80.273 39.176l1.501-13.438H16.743l1.387 12.443h-0.049l2.524 21.626 1.558 14.693 2.708 24.382h48.773l0 0 2.576-24.382 4.089-35.325H80.273zM70.783 71.633H27.758l-3.245-26.716h49.36L70.783 71.633z" fill="black"></path></svg></g></svg></g></svg></g></svg></g><g></g></svg></g></svg></g><g><path d="M152.265 37.942A96.991 96.991 0 0 1 243.255 37.942L239.713 37.942A93.448 93.448 0 0 0 155.807 37.942L152.265 37.942M152.265 209.258A96.991 96.991 0 0 0 243.255 209.258L239.713 209.258A93.448 93.448 0 0 1 155.807 209.258L152.265 209.258" fill="black" stroke="transparent"></path></g></svg></g><defs><mask></mask></defs></svg><rect width="395.52" height="247.2" fill="black" stroke="none" visibility="hidden"></rect></g></mask></svg><rect width="395.52" height="247.2" fill="black" stroke="none" visibility="hidden"></rect></g></mask></svg><rect width="395.52" height="247.2" fill="black" stroke="none" visibility="hidden"></rect></g></mask><linearGradient x1="0" x2="1" y1="0.578" y2="0.595" id="f48dc574-79c4-4539-ab90-bb5f3001e32e"><stop stop-color="#dede50" offset="0"></stop><stop stop-color="#559c49" offset="1"></stop></linearGradient></svg><rect width="395.52" height="247.2" fill="none" stroke="none" visibility="hidden"></rect></g></svg></g></svg>